<?xml version="1.0" encoding="UTF-8"?>
<svg version="1.1" xmlns="http://www.w3.org/2000/svg" width="500" height="500">
<path d="M0 0 C165 0 330 0 500 0 C500 165 500 330 500 500 C335 500 170 500 0 500 C0 335 0 170 0 0 Z " fill="#FEFEFE" transform="translate(0,0)"/>
<path d="M0 0 C0 2.64 0 5.28 0 8 C-1.134375 8.45890625 -2.26875 8.9178125 -3.4375 9.390625 C-4.95840074 10.01025123 -6.47923028 10.63005228 -8 11.25 C-8.74378906 11.55035156 -9.48757812 11.85070312 -10.25390625 12.16015625 C-14.70596968 13.97969522 -19.01376517 15.94858049 -23.2734375 18.18359375 C-25.46407089 19.21943624 -27.60216443 19.70027055 -30 20 C-30 20.66 -30 21.32 -30 22 C-28.948125 22.103125 -27.89625 22.20625 -26.8125 22.3125 C-23.00498299 22.99910143 -21.18444226 23.93011253 -18 26 C-12.13631857 28.69729346 -6.07703853 30.83512371 0 33 C0 35.97 0 38.94 0 42 C-5.136746 40.38997514 -9.41570284 38.82110594 -14 36 C-15.80086959 35.33301126 -17.60264079 34.668294 -19.41015625 34.01953125 C-22.94286311 32.62882764 -26.37221408 31.04126705 -29.8125 29.4375 C-30.4710498 29.13231445 -31.12959961 28.82712891 -31.80810547 28.51269531 C-34.69470688 27.15735096 -37.34083786 25.77277476 -40 24 C-40.1875 20.375 -40.1875 20.375 -40 17 C-36.17762024 15.22086156 -32.35476528 13.44274917 -28.53149414 11.66552734 C-27.23481818 11.06260919 -25.93826548 10.45942585 -24.6418457 9.85595703 C-20.43145429 7.89619939 -16.21672753 5.94608755 -12 4 C-11.07171387 3.56623047 -10.14342773 3.13246094 -9.18701172 2.68554688 C-7.99422607 2.13737305 -7.99422607 2.13737305 -6.77734375 1.578125 C-6.10823975 1.2677832 -5.43913574 0.95744141 -4.74975586 0.63769531 C-3 0 -3 0 0 0 Z " fill="#C18D6D" transform="translate(244,232)"/>
<path d="M0 0 C13.85148472 4.20491501 26.93827295 10.82570661 40 17 C40 19.31 40 21.62 40 24 C34.49873181 27.12480123 29.14471141 30.09464853 23.15625 32.15625 C20.35485246 33.25244904 17.73631035 34.62258255 15.0625 36 C10.12258967 38.52330871 5.3083318 40.40750046 0 42 C0 39.36 0 36.72 0 34 C2.1862225 32.89324381 4.37390948 31.78955622 6.5625 30.6875 C7.47612305 30.2244043 7.47612305 30.2244043 8.40820312 29.75195312 C14.78627746 26.54604275 21.08745707 23.83393996 28 22 C25.47967461 19.05647154 22.76910689 17.82423394 19.23828125 16.30078125 C18.12001953 15.81416016 17.00175781 15.32753906 15.84960938 14.82617188 C14.68236328 14.32666016 13.51511719 13.82714844 12.3125 13.3125 C11.13365234 12.80138672 9.95480469 12.29027344 8.74023438 11.76367188 C5.82950308 10.50274779 2.91608407 9.24848314 0 8 C0 5.36 0 2.72 0 0 Z " fill="#C18D6C" transform="translate(256,232)"/>
<path d="M0 0 C2.67754605 1.66825299 5.11359038 3.49081398 7.5703125 5.46875 C10.35536154 7.22395775 11.76908826 7.47865359 15 7 C17.35953094 4.64046906 17.49141413 3.22104383 18 0 C20.31 0 22.62 0 25 0 C24.79937606 5.71778226 23.96802478 9.49063962 19.93359375 13.69921875 C16.83269813 15.7852758 14.1913553 15.88134877 10.5234375 15.64453125 C6.88541027 14.71531377 4.62825652 12.76044162 1.828125 10.3359375 C-0.77643997 8.43260156 -2.88340524 8.53251079 -6 9 C-6.66 10.98 -7.32 12.96 -8 15 C-10.31 15 -12.62 15 -15 15 C-15.42056594 11.56537817 -15.63981991 9.00514918 -13.734375 6.01171875 C-9.77169519 1.36614995 -6.43888451 -1.50948208 0 0 Z " fill="#C18B6D" transform="translate(169,244)"/>
<path d="M0 0 C2.62161266 1.69435416 5.069929 3.55314176 7.5546875 5.44140625 C11.00412001 7.6400062 13.03244471 7.60375841 17 7 C17.33 4.69 17.66 2.38 18 0 C20.31 0 22.62 0 25 0 C25.45543387 5.69292334 24.68246386 8.6015015 21 13 C18.1416925 15.24581303 14.89364023 15.57953148 11.28515625 15.5390625 C7.32163539 14.60407809 4.48254009 11.99279979 1.39453125 9.43359375 C-0.93982266 7.71186551 -0.93982266 7.71186551 -3.80078125 8.28515625 C-4.52652344 8.52105469 -5.25226563 8.75695312 -6 9 C-6.66 10.98 -7.32 12.96 -8 15 C-10.31 15 -12.62 15 -15 15 C-15.50537432 9.69356959 -14.30655751 7.13319688 -11 3 C-7.58561575 -0.53212164 -4.79594338 -0.77353926 0 0 Z " fill="#C18C6D" transform="translate(321,244)"/>
</svg>
